# xmcd
#
# Track frame offsets:
#	150
#	12987
#	27640
#	46052
#	65757
#	80695
#	97240
#	112230
#	127677
#	143915
#	161252
#	177437
#
# Disc length: 2570 seconds
#
# Revision: 0
# Processed by: cddbd v1.5.1PL0 Copyright (c) Steve Scherf et al.
# Submitted via: dBpowerAMP V4.0
#
DISCID=a60a080c
DTITLE=Bellamy Brothers - Bellamy Brothers Disc One
DYEAR=1900
DGENRE=Country
TTITLE0=Crazy From The Heart
TTITLE1=Dancin' Cowboys
TTITLE2=Forget About Me
TTITLE3=I'd Lie For Your Love
TTITLE4=If I Said You Had A Beautiful Body (Would You Hold It Against Me)
TTITLE5=Let Your Love Flow
TTITLE6=Lovers Live Longer
TTITLE7=Old Hippie
TTITLE8=Redneck Girl
TTITLE9=Sugar Daddy
TTITLE10=When I'm Away From You
TTITLE11=You Ain't Just A Whistlin' Dixie
EXTD=
EXTT0=
EXTT1=
EXTT2=
EXTT3=
EXTT4=
EXTT5=
EXTT6=
EXTT7=
EXTT8=
EXTT9=
EXTT10=
EXTT11=
PLAYORDER=
